<svg version="1" xmlns="http://www.w3.org/2000/svg" width="413.333" height="413.333" viewBox="0 0 310.000000 310.000000"><path d="M218.7 14.7c-1 .3-3.3 3.8-5.6 8.8-2.2 4.5-4.4 8.6-5.1 9-.6.4-2.9-.5-5.2-2-2.2-1.5-4.4-2.3-4.8-1.8-.4.4-3.4 8.4-6.6 17.8-6.9 19.9-10.1 25.2-22.9 38.1-18.8 19.1-38.3 29.1-89 45.5-15.4 5-30.6 10.5-33.8 12.2-7.7 4-15.9 13-18.7 20.4-10.3 27.3 1.7 68.5 29 100.2 20 23.1 52.6 36.4 89 36.4 30.5 0 51.6-8.9 61.6-25.8 5.3-9.1 5.5-11.5 4.8-54-.7-41.1-.1-52.4 3.7-69.5 3.7-16.8 8.2-27.4 18.4-42.8 4.2-6.4 11.1-13.2 13.4-13.2 1.3 0 1.5 51.8.3 53.6-.4.5-2.4 2-4.4 3.2-4.7 2.9-8.8 10.8-8.8 17.2 0 2.5 1.6 12.7 3.5 22.5 1.9 9.9 5 26.5 7 37 2.1 10.4 3.8 19.1 3.9 19.3.4.3 38.6-12.5 39.3-13.2.6-.5-1.3-11.1-7.2-41.6-1.5-7.4-3.3-17.1-4.1-21.4-2.9-15.9-5.2-19.9-13.1-22.1l-3.8-1.1-.3-31.9-.2-31.9 4.2-3.6 4.1-3.6-3.6-2.8c-2-1.6-3.7-3.4-3.7-4 0-.6 2.9-4.1 6.5-7.6 5.6-5.5 6.5-6.9 6.5-10 0-13-21.9-32.4-41.1-36.6-6.5-1.3-10-1.5-13.2-.7zm-21.1 70c6.1 6 17.7 13.3 21 13.3.6 0 1.8.6 2.8 1.3 1.7 1.3 1.6 1.6-1.4 6.5-8.3 13.5-16.3 38-18.5 56.4-.3 3.2-.9 5.9-1.3 6.2-.4.2-3.9-.9-7.8-2.5-8.8-3.5-23.4-7.2-37.9-9.5-15.2-2.5-58.4-2.5-73 0-11.3 1.9-34.4 7.7-39.9 10-4.5 1.9-4.7.7-.7-5.6 4.7-7.4 7.8-8.9 39.4-18.9 37.2-11.8 58.7-21 75.6-32.3 11-7.3 22.8-17.7 29.8-25.9 2.6-3.2 4.8-5.7 4.9-5.7.1 0 3.2 3 7 6.7zm65.5 79c3.5 9.2-8.4 17.1-15.5 10.4-2.1-2-2.6-3.4-2.6-7.3 0-5.2 1.6-6.3 4.6-3.3 2.2 2.1 6.8 1.9 8.9-.5 2.4-2.7 3.4-2.5 4.6.7zM44.5 188.9c7.9 3.4 17.8 6.1 31.3 8.6 5 1 9.2 2.1 9.2 2.5 0 .3-1.6 1.3-3.6 2-3.2 1.3-3.4 1.5-1.8 2.7 1.6 1.2 1.6 1.3.1 1.3-2.7 0-19.6-3-26.2-4.6-7.8-1.9-14.7-4.4-16.1-5.8-1.7-1.6-2.7-11-1.1-10.3.6.3 4.4 1.9 8.2 3.6z"/></svg>