<svg id="Layer_1" data-name="Layer 1" xmlns="http://www.w3.org/2000/svg" xmlns:xlink="http://www.w3.org/1999/xlink" viewBox="0 0 400 400"><defs><style>.cls-1{fill:url(#linear-gradient);}.cls-2{fill:url(#linear-gradient-2);}.cls-3{fill:#3bacbf;}.cls-4{fill:#2a5066;}.cls-5{fill:url(#linear-gradient-3);}.cls-6{fill:#97c9d3;opacity:0.5;}.cls-7{fill:#294f66;}.cls-8{fill:#3aa9bb;}.cls-9{fill:#1a98ae;}.cls-10{fill:#3ba9bb;}</style><linearGradient id="linear-gradient" x1="263.939" y1="244.917" x2="247.956" y2="198.76" gradientTransform="translate(126.592 -73.151) rotate(29.957)" gradientUnits="userSpaceOnUse"><stop offset="0" stop-color="#1c7e9d"/><stop offset="1" stop-color="#0f9fc9"/></linearGradient><linearGradient id="linear-gradient-2" x1="224.522" y1="326.821" x2="161.172" y2="158.376" gradientTransform="translate(126.592 -73.151) rotate(29.957)" gradientUnits="userSpaceOnUse"><stop offset="0" stop-color="#1a98ae"/><stop offset="1" stop-color="#3aa9bb"/></linearGradient><linearGradient id="linear-gradient-3" x1="304.394" y1="57.4" x2="312.167" y2="24.947" gradientUnits="userSpaceOnUse"><stop offset="0" stop-color="#244354"/><stop offset="1" stop-color="#2b5166"/></linearGradient></defs><title>Artboard 1</title><g id="with_glass" data-name="with glass"><path class="cls-1" d="M268.75,297.75c-9.3.356-24.125,3-41.5-8.625-11.651-7.8-17.826-24.107-28.812-51.727C255.714,233.245,270.75,266.75,268.75,297.75Z"/><path class="cls-2" d="M268.813,297.688c-6.794,8.147-49.813,60.274-60.876,73.52C152.652,360.191,103.463,334.059,68.3,300.2c-4.339-4.178-9.635-9.363-11.052-15.779,28.256-66.52,54.086-125.248,59.208-137.1C233.062,203.534,179.767,305.166,268.813,297.688Z"/><path class="cls-3" d="M173,190.729C106.435,212.989,70.1,295.274,68.013,299.908c-4.351-4.263-9.763-9.325-10.6-15.658,2.639-6.242,57.392-133.208,59.041-136.937,21.621,10.483,40.375,23.52,56.439,43.164A.845.845,0,0,1,173,190.729Z"/><path class="cls-4" d="M118.7,141.9c10.265-18.034,8.352-23.736,17.871-23.267,41.232,2.029,60.706,3.491,87.59-7.983,27.224-11.618,45.026-44.143,27.991-76.351C277.5,57.859,267.074,128.57,170.638,129,143.654,129.126,142.2,121.18,118.7,141.9Z"/><path class="cls-5" d="M275.683,36.318c1.755-7.267,3.531-14.529,5.246-21.8.3-1.268,1.193-.937,1.839-.726a155.866,155.866,0,0,1,57.48,33.572,3.286,3.286,0,0,1,.372.47L325.6,62.655c-.629.85-1.444.648-2.274.393-2.811-.864-5.467-2.115-8.2-3.183-10.488-4.1-20.193-9.683-29.842-15.346a99.077,99.077,0,0,1-9.013-6.026c-.486-.362-.985-.723-.941-1.425l.246-.471A.237.237,0,0,0,275.683,36.318Z"/><path class="cls-4" d="M351.116,69.538c-35.866,5.828-78.643-15.8-94.514-50.772h-.014C281.275,44.128,315.981,64.193,351.116,69.538Z"/><path class="cls-6" d="M271.092,212.28c8.607,4.868,11.345,14.818,6.4,23.245a17.577,17.577,0,0,1-23.809,6.334,17.157,17.157,0,0,1-6.3-23.477A17.483,17.483,0,0,1,271.092,212.28Z"/><path class="cls-7" d="M281.963,281.656c4.689-6.884,21.609-26.875,28.058-48.339,2.642-8.79-21.688-32.317-20.021-59.65,8.667,29.666,36.3,46.078,30.38,56.715C308.5,250,297.724,264.188,281.963,281.656Z"/><path class="cls-6" d="M248.743,186.656c4.881,2.756,6.406,8.13,3.645,12.84a9.788,9.788,0,0,1-13.283,3.654,9.552,9.552,0,1,1,9.638-16.494Z"/><path class="cls-8" d="M235.847,307.586c4.881,2.757,6.407,8.131,3.646,12.841a9.789,9.789,0,0,1-13.283,3.654,9.552,9.552,0,1,1,9.637-16.5Z"/><path class="cls-8" d="M96.1,290.225c4.881,2.756,6.406,8.131,3.645,12.841a9.788,9.788,0,0,1-13.283,3.653A9.552,9.552,0,1,1,96.1,290.225Z"/><path class="cls-4" d="M126.375,363.708c8.98,3.67,49.544,16.846,64.55,15.922,3.841-.237,13.292-4.793,14.46-5.5-2.969,3.584-11.563,13.467-12.635,13.292C172.417,385.083,126.626,363.933,126.375,363.708Z"/><path class="cls-6" d="M264.291,170.951c2.574-3.879,6-4.743,9.593-2.726,3.678,2.064,4.748,5.547,2.488,9.3-2.195,3.649-5.647,4.537-9.357,2.486C263.179,177.894,262.648,174.526,264.291,170.951Z"/><path class="cls-8" d="M194.341,329.552a7.3,7.3,0,0,1,1.543-2.8,6.4,6.4,0,0,1,8.618-1.444c3.677,2.063,4.748,5.547,2.488,9.3-2.2,3.649-5.648,4.537-9.358,2.486C194.344,335.281,193.484,332.547,194.341,329.552Z"/><path class="cls-6" d="M270.566,130.012c2.928,2.008,4.007,4.465,2.258,7.467-1.734,2.976-4.5,3.752-7.544,2.077-3.029-1.665-3.714-4.327-2.018-7.305C264.972,129.248,267.6,128.786,270.566,130.012Z"/><path class="cls-8" d="M201.023,343.717c2.342,1.607,3.206,3.572,1.806,5.974a4.1,4.1,0,0,1-6.035,1.661c-2.423-1.332-2.971-3.461-1.615-5.844C196.548,343.106,198.65,342.736,201.023,343.717Z"/><path class="cls-8" d="M95.717,273.956c2.342,1.607,3.206,3.572,1.807,5.974a4.1,4.1,0,0,1-6.035,1.661c-2.423-1.332-2.971-3.461-1.615-5.844C91.243,273.345,93.345,272.975,95.717,273.956Z"/><path class="cls-6" d="M182.625,167.378c2.928,2.008,4.008,4.465,2.258,7.467-1.734,2.976-4.5,3.753-7.543,2.077-3.029-1.665-3.714-4.327-2.019-7.305C177.032,166.614,179.66,166.152,182.625,167.378Z"/><path class="cls-4" d="M60.25,316.813c-2.188-1.75-8.89-10.259-11-13.5.6-2.276,4.44-11.593,5.307-12.777C52.664,299.1,54.3,310.258,60.25,316.813Z"/><polygon class="cls-9" points="251.779 15.218 251.74 15.183 251.764 15.217 251.779 15.218"/><path class="cls-9" d="M278.493,37.014a1.269,1.269,0,0,1,.007.23c0,.021-.074.033-.114.049Z"/><path class="cls-10" d="M173.048,191.362l-.234-.319Z"/><path class="cls-9" d="M202.3,240.719l-.349.125Z"/></g><path class="cls-4" d="M328.75,82.417c-9,1.833-15.75,4.75-24.333,11.583C310.917,83.917,314.083,77.583,328.75,82.417Z"/><path class="cls-4" d="M292,66.667c19.667,11,31.25,13.583,50.25,11.583C324.5,87,308,82.75,292,66.667Z"/></svg>