<svg id="Layer_1" data-name="Layer 1" xmlns="http://www.w3.org/2000/svg" xmlns:xlink="http://www.w3.org/1999/xlink" viewBox="0 0 400 400"><defs><style>.cls-1{fill:#97c9d3;}.cls-2{fill:#1a98ae;}.cls-3{fill:url(#linear-gradient);}.cls-4{fill:#39acbe;}.cls-5{fill:#2a5066;}.cls-6{fill:url(#linear-gradient-2);}.cls-7{fill:#294f66;}.cls-8{fill:#3ba9bb;}</style><linearGradient id="linear-gradient" x1="263.939" y1="244.917" x2="247.956" y2="198.76" gradientTransform="translate(126.592 -73.151) rotate(29.957)" gradientUnits="userSpaceOnUse"><stop offset="1" stop-color="#1c7e9d"/><stop offset="1" stop-color="#0f9fc9"/></linearGradient><linearGradient id="linear-gradient-2" x1="304.394" y1="57.4" x2="312.167" y2="24.947" gradientUnits="userSpaceOnUse"><stop offset="1" stop-color="#244354"/><stop offset="1" stop-color="#2b5166"/></linearGradient></defs><title>Artboard 1</title><g id="simple"><path class="cls-1" d="M351.116,69.538c-71.565-9.435-72-28.879-94.514-50.772C249.143,18.771,244.167,24,252,34.5c8.3,10.422,11.351,23.668,10,39.5-12.563,27.037-33.835,45.127-67,51-43.776-6.378-67.556,1.573-76.125,16.625l-64.5,149.5L49.333,304c32.65,42.192,82.5,67.268,143.042,83.042,3.8-4.509,8.975-8.071,12.958-12.834,26.027-31.119,55.573-66.952,77.417-93.458l31.5-44.25L290,174.5c-2.546-32.9-.257-67.311,16.5-82.5,9.023-8.411,21.425-12.352,35.75-13.75C348.808,77.708,351.881,74.881,351.116,69.538ZM184.883,174.845c-1.734,2.976-4.5,3.753-7.543,2.077-3.029-1.665-3.714-4.327-2.019-7.305,1.711-3,4.339-3.465,7.3-2.239C185.553,169.386,186.633,171.843,184.883,174.845Zm91.489,2.683c-2.195,3.649-5.647,4.537-9.357,2.486-3.836-2.12-4.367-5.488-2.724-9.063,2.574-3.879,6-4.743,9.593-2.726C277.562,170.289,278.632,173.772,276.372,177.528Zm-13.11-45.277c1.71-3,4.338-3.466,7.3-2.239,2.928,2.008,4.007,4.465,2.258,7.467-1.734,2.976-4.5,3.752-7.544,2.077C262.251,137.891,261.566,135.229,263.262,132.251Zm-24.157,70.9a9.552,9.552,0,1,1,9.638-16.494c4.881,2.756,6.406,8.13,3.645,12.84A9.788,9.788,0,0,1,239.105,203.15Zm38.382,32.375a17.577,17.577,0,0,1-23.809,6.334,17.157,17.157,0,0,1-6.3-23.477,17.483,17.483,0,0,1,23.715-6.1C279.7,217.147,282.437,227.1,277.487,235.525Z"/><path class="cls-2" d="M116.458,147.313c-5.122,11.856-30.952,70.584-59.208,137.1,1.417,6.416,6.713,11.6,11.052,15.779,35.161,33.863,84.35,59.995,139.636,71.012,11.062-13.246,54.081-65.373,60.875-73.52C179.767,305.166,233.062,203.534,116.458,147.313ZM89.874,275.747c1.369-2.4,3.471-2.772,5.843-1.791,2.343,1.607,3.206,3.572,1.807,5.974a4.1,4.1,0,0,1-6.035,1.661C89.066,280.259,88.518,278.13,89.874,275.747Zm9.875,27.319a9.788,9.788,0,0,1-13.283,3.653A9.552,9.552,0,1,1,96.1,290.225C100.985,292.981,102.51,298.356,99.749,303.066Zm103.08,46.625a4.1,4.1,0,0,1-6.035,1.661c-2.423-1.332-2.971-3.461-1.614-5.844,1.368-2.4,3.47-2.772,5.843-1.791C203.365,345.324,204.229,347.289,202.829,349.691Zm4.161-15.078c-2.2,3.649-5.648,4.537-9.358,2.486-3.288-1.818-4.148-4.552-3.291-7.547a7.3,7.3,0,0,1,1.543-2.8,6.4,6.4,0,0,1,8.618-1.444C208.179,327.373,209.25,330.857,206.99,334.613Zm32.5-14.186a9.789,9.789,0,0,1-13.283,3.654,9.552,9.552,0,1,1,9.637-16.5C240.728,310.343,242.254,315.717,239.493,320.427Z"/><path class="cls-3" d="M268.75,297.75c-9.3.356-24.125,3-41.5-8.625-11.651-7.8-17.826-24.107-28.812-51.727C255.714,233.245,270.75,266.75,268.75,297.75Z"/><path class="cls-4" d="M173,190.729C106.435,212.989,70.1,295.274,68.013,299.908c-4.351-4.263-9.763-9.325-10.6-15.658,2.639-6.242,57.392-133.208,59.041-136.937,21.621,10.483,40.375,23.52,56.439,43.164A.845.845,0,0,1,173,190.729Z"/><path class="cls-5" d="M118.7,141.9c10.265-18.034,8.352-23.736,17.871-23.267,41.232,2.029,60.706,3.491,87.59-7.983,27.224-11.618,45.026-44.143,27.991-76.351C277.5,57.859,267.074,128.57,170.638,129,143.654,129.126,142.2,121.18,118.7,141.9Z"/><path class="cls-6" d="M275.683,36.318c1.755-7.267,3.531-14.529,5.246-21.8.3-1.268,1.193-.937,1.839-.726a155.866,155.866,0,0,1,57.48,33.572,3.286,3.286,0,0,1,.372.47L325.6,62.655c-.629.85-1.444.648-2.274.393-2.811-.864-5.467-2.115-8.2-3.183-10.488-4.1-20.193-9.683-29.842-15.346a99.077,99.077,0,0,1-9.013-6.026c-.486-.362-.985-.723-.941-1.425l.246-.471A.237.237,0,0,0,275.683,36.318Z"/><path class="cls-5" d="M351.116,69.538c-35.866,5.828-78.643-15.8-94.514-50.772h-.014C281.275,44.128,315.981,64.193,351.116,69.538Z"/><path class="cls-7" d="M281.963,281.656c4.689-6.884,21.609-26.875,28.058-48.339,2.642-8.79-21.688-32.317-20.021-59.65,8.667,29.666,36.3,46.078,30.38,56.715C308.333,249,297.724,264.188,281.963,281.656Z"/><path class="cls-5" d="M126.375,363.708c8.98,3.67,49.544,16.846,64.55,15.922,3.841-.237,13.292-4.793,14.46-5.5-2.969,3.584-11.563,13.467-12.635,13.292C172.417,385.083,126.626,363.933,126.375,363.708Z"/><path class="cls-5" d="M60.25,316.813c-2.188-1.75-8.89-10.259-11-13.5.6-2.276,4.44-11.593,5.307-12.777C52.664,299.1,54.3,310.258,60.25,316.813Z"/><polygon class="cls-2" points="251.779 15.218 251.74 15.183 251.764 15.217 251.779 15.218"/><path class="cls-2" d="M278.493,37.014a1.269,1.269,0,0,1,.007.23c0,.021-.074.033-.114.049Z"/><path class="cls-8" d="M173.048,191.362l-.234-.319Z"/><path class="cls-2" d="M202.3,240.719l-.349.125Z"/></g><path class="cls-5" d="M328.75,82.417c-9,1.833-15.75,4.75-24.333,11.583C310.917,83.917,314.083,77.583,328.75,82.417Z"/><path class="cls-5" d="M292,66.667c19.667,11,31.25,13.583,50.25,11.583C324.5,87,308,82.75,292,66.667Z"/></svg>