<svg xmlns="http://www.w3.org/2000/svg" viewBox="0 0 700 300"><defs><style>.cls-1{fill:#1c7e9d;}.cls-2{fill:#264658;}</style></defs><title>Artboard 2</title><g id="Layer_2" data-name="Layer 2"><path class="cls-1" d="M23,228.136l10.117,10.648L21.989,249.846,33.4,261.192,22.823,271.713,1,250.011Zm8.234,33.085L19.837,249.89l11.176-11.113-8.275-8.226L3.166,250.013l19.668,19.558Z"/><path class="cls-1" d="M77.564,249.982,66.448,238.945,77.12,228.159,99,249.916,77.219,271.574,66.537,260.947ZM68.57,238.933l11.145,11.079L68.692,260.973l8.534,8.48,19.579-19.468L77.131,230.421Z"/><path class="cls-1" d="M28.288,276.862,38.682,266.53l11.069,11.012L61.142,266.21,71.9,276.915,50.122,298.58ZM38.722,268.7l-8.266,8.232,19.592,19.49L69.69,276.881l-8.517-8.471q-5.64,5.611-11.371,11.31Z"/><path class="cls-1" d="M38.8,233.347,28.211,222.91l21.832-21.716q10.913,10.854,21.833,21.716L61.151,233.576,49.86,222.347ZM69.736,222.9,50.064,203.332,30.435,222.858l8.372,8.328,11.037-10.977,11.3,11.237Z"/><path class="cls-2" d="M139.031,233.231l-10.484-10.478L150.3,201l21.736,21.74-10.715,10.714L150.065,222.2Z"/><path class="cls-1" d="M101.435,249.872l21.925-21.924,10.122,10.668-11.047,11.045,11.313,11.31-10.6,10.609Zm21.756-19.5-19.541,19.54,19.53,19.529,8.345-8.345-11.3-11.294,11.2-11.2Z"/><path class="cls-1" d="M177.3,271.448l-10.659-10.656q5.47-5.472,10.987-10.986l-11.024-11.015,10.626-10.8L199,249.753Zm-.008-2.138,19.556-19.556-19.488-19.487-8.543,8.543,11.043,11.042-11.016,11.014Z"/><path class="cls-1" d="M150.341,298.515l-21.687-21.692,10.417-10.415,10.951,10.951L161.29,266.09q5.424,5.423,10.735,10.735Q161.257,287.6,150.341,298.515ZM130.835,276.72l19.541,19.547L169.841,276.8l-8.578-8.582-11.334,11.336-10.964-10.966Z"/><path class="cls-2" d="M277.361,271.179,266.81,260.624q5.448-5.45,10.933-10.933l-11.035-11.032,10.665-10.667,21.589,21.588Z"/><path class="cls-2" d="M223.473,271.392a2.389,2.389,0,0,0-.281-.4q-10.422-10.433-20.855-20.852c-.22-.22-.509-.513-.509-.513s.28-.272.492-.485q10.453-10.435,20.891-20.887a3.445,3.445,0,0,0,.3-.388l10.543,10.562-11.125,11.122,11.195,11.194Z"/><path class="cls-1" d="M239.408,266.134l10.824,10.829,11.189-11.192,10.717,10.714L250.628,298l-21.541-21.546Zm-8.245,10.285,19.4,19.409,19.415-19.421-8.419-8.42-11.295,11.3L239.284,268.3Z"/><path class="cls-1" d="M272.132,222.771,261.5,233.4l-11.147-11.149-10.9,10.9-10.471-10.381,21.576-21.581Zm-2.1-.015L250.576,203.3l-19.4,19.409,8.227,8.229,10.886-10.895,11.229,11.229Z"/><path class="cls-2" d="M366.57,238.565l10.714-10.729L399,249.551l-21.7,21.7-10.591-10.595,10.977-10.976Z"/><path class="cls-2" d="M372.129,276.605l-21.711,21.711L328.75,276.647q5.151-5.148,10.395-10.389l10.9,10.9,11.32-11.321Z"/><path class="cls-2" d="M322.531,249.588l11.282,11.283-10.562,10.561c-.117-.11-.251-.23-.378-.357l-21-20.994c-.481-.481-.481-.481,0-.958q10.5-10.5,20.992-21a4.058,4.058,0,0,0,.3-.374l10.581,10.62Z"/><path class="cls-1" d="M361.318,233.251c-3.687-3.687-7.447-7.446-11.2-11.2L339.176,233l-10.448-10.384,21.7-21.709,21.615,21.62Zm-10.878-30.2-19.551,19.557,8.255,8.251,11.03-11.031L361.4,231.052l8.519-8.519Z"/><path class="cls-2" d="M477.321,227.805,499,249.482,477.28,271.2,466.691,260.61l10.975-10.975-11.09-11.084Z"/><path class="cls-2" d="M428.66,222.521l21.669-21.666q10.837,10.838,21.717,21.721l-10.7,10.7-11.239-11.24L439.143,233Z"/><path class="cls-2" d="M428.726,276.534,439.078,266.2,449.986,277.1l11.326-11.328L472.033,276.5l-21.672,21.674Z"/><path class="cls-2" d="M433.739,238.333,422.531,249.54l11.28,11.28-10.556,10.562c-.107-.1-.23-.206-.345-.32q-10.53-10.529-21.063-21.055c-.3-.3-.394-.511-.046-.859q10.632-10.609,21.246-21.234c.059-.059.124-.114.162-.148Z"/><path class="cls-2" d="M566.882,239.079l10.66-10.668L599,249.867l-21.5,21.5-10.515-10.516,10.837-10.824Z"/><path class="cls-2" d="M572.314,223.257l-10.581,10.58-11.119-11.119-10.858,10.859L529.4,223.227l21.444-21.442Z"/><path class="cls-2" d="M529.4,276.626,539.638,266.4c3.61,3.612,7.242,7.244,10.834,10.837l11.212-11.214L572.3,276.631l-21.446,21.447Z"/><path class="cls-2" d="M523.957,228.293l10.451,10.481-11.1,11.1,11.184,11.184L523.94,271.61a3.056,3.056,0,0,0-.285-.38q-10.385-10.391-20.777-20.772c-.428-.428-.437-.554,0-.993q10.4-10.379,20.777-20.773A3.192,3.192,0,0,0,523.957,228.293Z"/><path class="cls-1" d="M518.913,217.579v11.5h-1.454V216.128H530.5v1.451Z"/><path class="cls-1" d="M582.872,218.187h-11.5v-1.455h12.946v13.042h-1.451Z"/><path class="cls-1" d="M516.853,282.976V269.948h1.438v11.558h11.493v1.47Z"/><path class="cls-1" d="M583.72,283.6H570.675v-1.439h11.558V270.666h1.487Z"/><path class="cls-2" d="M677.593,249.64,666.55,238.6l10.7-10.707L698.9,249.536l-21.674,21.672-10.6-10.6Z"/><path class="cls-2" d="M628.666,222.666,650.335,201l21.635,21.64-10.688,10.689c-3.692-3.692-7.436-7.436-11.159-11.161l-10.975,10.978Z"/><path class="cls-2" d="M628.724,276.551,639.08,266.2l10.9,10.905,11.255-11.257L672,276.607,650.391,298.22Z"/><path class="cls-2" d="M623.193,227.8l10.572,10.6L622.6,249.57,633.83,260.8l-10.674,10.677a2.741,2.741,0,0,0-.292-.406q-10.458-10.469-20.927-20.925c-.461-.459-.428-.586-.013-1q10.49-10.471,20.964-20.959A3.757,3.757,0,0,0,623.193,227.8Z"/><path class="cls-2" d="M691.138,270.468v20.6H670.481v-.6c0-2.087.017-4.175-.012-6.262-.009-.676-.14-1.351-.227-2.14a22.864,22.864,0,0,1,2.938-.07c.984-.017,1.969,0,2.954,0H682V270.468Z"/><path class="cls-2" d="M629.391,281.514V290.5H608.736V269.848h9.078v11.666Z"/><path class="cls-2" d="M618.255,217.171v11.576H609.3V208.114h20.621v9.057Z"/><path class="cls-2" d="M682.608,229.305V217.633H671.053v-8.959h20.654v20.631Z"/><path class="cls-1" d="M23,128.136l10.117,10.648L21.989,149.846,33.4,161.192,22.823,171.713,1,150.011Zm8.234,33.085L19.837,149.89l11.176-11.113-8.275-8.226L3.166,150.013l19.668,19.558Z"/><path class="cls-1" d="M77.564,149.982,66.448,138.945,77.12,128.159,99,149.916,77.219,171.574,66.537,160.947ZM68.57,138.933l11.145,11.079L68.692,160.973l8.534,8.48,19.579-19.468L77.131,130.421Z"/><path class="cls-1" d="M28.288,176.862,38.682,166.53l11.069,11.012L61.142,166.21l10.76,10.7L50.122,198.58ZM38.722,168.7l-8.266,8.232,19.592,19.49L69.69,176.881l-8.517-8.471q-5.64,5.612-11.371,11.31Z"/><path class="cls-1" d="M38.8,133.347,28.211,122.91l21.832-21.716q10.913,10.854,21.833,21.716L61.151,133.576,49.86,122.347ZM69.736,122.9,50.064,103.332,30.435,122.858l8.372,8.328,11.037-10.977,11.3,11.237Z"/><path d="M31.683,149.827l18.284,18.179L68.281,149.8,50,131.616Z"/><path class="cls-2" d="M139.031,133.231l-10.484-10.478L150.3,101l21.736,21.74-10.715,10.714L150.065,122.2Z"/><path class="cls-1" d="M101.435,149.872l21.925-21.924,10.122,10.668-11.047,11.045,11.313,11.31-10.6,10.609Zm21.756-19.5-19.541,19.54,19.53,19.529,8.345-8.345-11.3-11.294,11.2-11.2Z"/><path class="cls-1" d="M177.3,171.448l-10.659-10.656q5.47-5.472,10.987-10.986l-11.024-11.015,10.626-10.8L199,149.753Zm-.008-2.138,19.556-19.556-19.488-19.487-8.543,8.543,11.043,11.042-11.016,11.014Z"/><path class="cls-1" d="M150.341,198.515l-21.687-21.692,10.417-10.415,10.951,10.951L161.29,166.09q5.424,5.423,10.735,10.735Q161.257,187.6,150.341,198.515ZM130.835,176.72l19.541,19.547L169.841,176.8l-8.578-8.582-11.334,11.336-10.964-10.966Z"/><path d="M150.231,170.046l-20.385-20.382L150.2,129.311l20.383,20.382Zm.057-38.576L132.03,149.723l18.2,18.2,18.255-18.253Z"/><path class="cls-2" d="M277.361,171.179,266.81,160.624l10.933-10.933-11.035-11.032,10.665-10.667,21.589,21.588Z"/><path class="cls-2" d="M223.473,171.392a2.389,2.389,0,0,0-.281-.4q-10.422-10.433-20.855-20.852c-.22-.22-.509-.513-.509-.513s.28-.272.492-.485q10.453-10.435,20.891-20.887a3.445,3.445,0,0,0,.3-.388l10.543,10.562-11.125,11.122,11.195,11.194Z"/><path class="cls-1" d="M239.408,166.134l10.824,10.829,11.189-11.192,10.717,10.714L250.628,198l-21.541-21.546Zm-8.245,10.285,19.4,19.409,19.415-19.421-8.419-8.42-11.295,11.3L239.284,168.3Z"/><path class="cls-1" d="M272.132,122.771,261.5,133.4l-11.147-11.149-10.9,10.9-10.471-10.381,21.576-21.581Zm-2.1-.015L250.576,103.3l-19.4,19.409,8.227,8.229,10.886-10.895,11.229,11.229Z"/><path d="M250.518,131.443c-6.024,6.024-12.083,12.082-18.075,18.072l18.1,18.1,18.073-18.07Z"/><path class="cls-2" d="M366.57,138.565l10.714-10.729L399,149.551l-21.7,21.7-10.591-10.595,10.977-10.976Z"/><path class="cls-2" d="M372.129,176.605l-21.711,21.711L328.75,176.647q5.151-5.148,10.395-10.389l10.9,10.9,11.32-11.321Z"/><path class="cls-2" d="M322.531,149.588l11.282,11.283-10.562,10.561c-.117-.11-.251-.23-.378-.357l-21-20.994c-.481-.481-.481-.481,0-.958q10.5-10.5,20.992-21a4.058,4.058,0,0,0,.3-.374l10.581,10.62Z"/><path class="cls-1" d="M361.318,133.251c-3.687-3.687-7.447-7.446-11.2-11.2L339.176,133l-10.448-10.384,21.7-21.709,21.615,21.62Zm-10.878-30.2-19.551,19.557,8.255,8.251,11.03-11.031L361.4,131.052l8.519-8.519Z"/><path class="cls-2" d="M477.321,127.805,499,149.482,477.28,171.2,466.691,160.61l10.975-10.975-11.09-11.084Z"/><path class="cls-2" d="M428.66,122.521l21.669-21.666q10.837,10.837,21.717,21.721l-10.7,10.7-11.239-11.24L439.143,133Z"/><path class="cls-2" d="M428.726,176.534,439.078,166.2,449.986,177.1l11.326-11.328L472.033,176.5l-21.672,21.674Z"/><path class="cls-2" d="M433.739,138.333,422.531,149.54l11.28,11.28-10.556,10.562c-.107-.1-.23-.206-.345-.32q-10.53-10.529-21.063-21.055c-.3-.3-.394-.511-.046-.859q10.632-10.609,21.246-21.234c.059-.059.124-.114.162-.148Z"/><path class="cls-2" d="M450.338,129.134l20.31,20.309L450.28,169.81,429.968,149.5Q440.142,139.328,450.338,129.134Zm-.033,2.1L432.1,149.444l18.188,18.185,18.207-18.2Z"/><path class="cls-2" d="M566.882,139.079l10.66-10.668L599,149.867l-21.5,21.5-10.515-10.516,10.837-10.824Z"/><path class="cls-2" d="M572.314,123.257l-10.581,10.58-11.119-11.119-10.858,10.859L529.4,123.227l21.444-21.442Z"/><path class="cls-2" d="M529.4,176.626,539.638,166.4c3.61,3.612,7.242,7.244,10.834,10.837l11.212-11.214L572.3,176.631l-21.446,21.447Z"/><path class="cls-2" d="M523.957,128.293l10.451,10.481-11.1,11.1,11.184,11.184L523.94,171.61a3.056,3.056,0,0,0-.285-.38q-10.385-10.391-20.777-20.772c-.428-.428-.437-.554,0-.993q10.4-10.379,20.777-20.773A3.192,3.192,0,0,0,523.957,128.293Z"/><path class="cls-2" d="M550.792,129.7l20.142,20.141-20.142,20.14-20.144-20.14Zm-17.984,20.147,17.966,17.962,18-18L550.807,131.85Z"/><path class="cls-1" d="M518.913,117.579v11.5h-1.454V116.128H530.5v1.451Z"/><path class="cls-1" d="M582.872,118.187h-11.5v-1.455h12.946v13.042h-1.451Z"/><path class="cls-1" d="M516.853,182.976V169.948h1.438v11.558h11.493v1.47Z"/><path class="cls-1" d="M583.72,183.6H570.675v-1.439h11.558V170.666h1.487Z"/><path class="cls-2" d="M677.593,149.64,666.55,138.6l10.7-10.707L698.9,149.536l-21.674,21.672-10.6-10.6Z"/><path class="cls-2" d="M628.666,122.666,650.335,101l21.635,21.64-10.688,10.689c-3.692-3.692-7.436-7.436-11.159-11.161l-10.975,10.978Z"/><path class="cls-2" d="M628.724,176.551,639.08,166.2l10.9,10.905,11.255-11.257L672,176.607,650.391,198.22Z"/><path class="cls-2" d="M623.193,127.8l10.572,10.6L622.6,149.57,633.83,160.8l-10.674,10.677a2.741,2.741,0,0,0-.292-.406q-10.458-10.468-20.927-20.925c-.461-.459-.428-.586-.013-1q10.49-10.471,20.964-20.959A3.757,3.757,0,0,0,623.193,127.8Z"/><path class="cls-2" d="M691.138,170.468v20.6H670.481v-.6c0-2.087.017-4.175-.012-6.262-.009-.676-.14-1.351-.227-2.14a22.864,22.864,0,0,1,2.938-.07c.984-.017,1.969,0,2.954,0H682V170.468Z"/><path class="cls-2" d="M629.391,181.514V190.5H608.736V169.848h9.078v11.666Z"/><path class="cls-2" d="M618.255,117.171v11.576H609.3V108.114h20.621v9.057Z"/><path class="cls-2" d="M682.608,129.305V117.633H671.053v-8.959h20.654v20.631Z"/><path class="cls-2" d="M650.289,129.211l20.283,20.283L650.254,169.81l-20.285-20.282Zm18.132,20.381L650.228,131.4c-6.023,6.021-12.094,12.092-18.133,18.13l18.195,18.191Z"/><path class="cls-1" d="M23,28.136,33.115,38.784,21.989,49.846,33.4,61.192,22.823,71.713,1,50.011Zm8.234,33.085L19.837,49.89,31.013,38.777l-8.275-8.226L3.166,50.013,22.834,69.571Z"/><path class="cls-1" d="M77.564,49.982,66.448,38.945,77.12,28.159,99,49.916,77.219,71.574,66.537,60.947ZM68.57,38.933,79.715,50.012,68.692,60.973l8.534,8.48L96.805,49.985,77.131,30.421Z"/><path class="cls-1" d="M28.288,76.862,38.682,66.53,49.751,77.542,61.142,66.21,71.9,76.915,50.122,98.58ZM38.722,68.7l-8.266,8.232,19.592,19.49L69.69,76.881,61.173,68.41Q55.533,74.022,49.8,79.72Z"/><path class="cls-1" d="M38.8,33.347,28.211,22.91,50.043,1.194Q60.956,12.048,71.876,22.91L61.151,33.576,49.86,22.347ZM69.736,22.9,50.064,3.332,30.435,22.858l8.372,8.328L49.844,20.209l11.3,11.237Z"/><path class="cls-2" d="M29.475,49.84,49.949,29.482,70.438,49.857,49.965,70.214Zm2.208-.013L49.967,68.006,68.281,49.8,50,31.616Z"/><path class="cls-2" d="M139.031,33.231,128.547,22.753,150.3,1l21.736,21.74L161.323,33.454,150.065,22.2Z"/><path class="cls-1" d="M101.435,49.872,123.36,27.948l10.122,10.668L122.435,49.661l11.313,11.31-10.6,10.609Zm21.756-19.5L103.65,49.914l19.53,19.529c2.756-2.755,5.548-5.548,8.345-8.345L120.229,49.8l11.2-11.2Z"/><path class="cls-1" d="M177.3,71.448,166.644,60.792q5.47-5.472,10.987-10.986L166.607,38.791l10.626-10.8L199,49.753ZM177.3,69.31l19.556-19.556L177.363,30.267,168.82,38.81l11.043,11.042L168.847,60.866Z"/><path class="cls-1" d="M150.341,98.515,128.654,76.823l10.417-10.415,10.951,10.951L161.29,66.09q5.424,5.422,10.735,10.735Q161.257,87.6,150.341,98.515ZM130.835,76.72l19.541,19.547L169.841,76.8l-8.578-8.582L149.929,79.552,138.965,68.586Z"/><path class="cls-2" d="M150.231,70.046,129.846,49.664,150.2,29.311l20.383,20.382Zm.057-38.576L132.03,49.723l18.2,18.2,18.255-18.253Z"/><path class="cls-2" d="M277.361,71.179,266.81,60.624l10.933-10.933L266.708,38.659l10.665-10.667L298.962,49.58Z"/><path class="cls-2" d="M223.473,71.392a2.389,2.389,0,0,0-.281-.4Q212.77,60.558,202.337,50.138c-.22-.22-.509-.513-.509-.513s.28-.272.492-.485Q212.773,38.7,223.211,28.253a3.445,3.445,0,0,0,.3-.388L234.05,38.427,222.925,49.549,234.12,60.743Z"/><path class="cls-1" d="M239.408,66.134l10.824,10.829,11.189-11.192,10.717,10.714L250.628,98,229.087,76.454Zm-8.245,10.285,19.4,19.409,19.415-19.421-8.419-8.42-11.295,11.3L239.284,68.3Z"/><path class="cls-1" d="M272.132,22.771,261.5,33.4,250.355,22.252l-10.9,10.9L228.983,22.775,250.559,1.194Zm-2.1-.015L250.576,3.3l-19.4,19.409,8.227,8.229,10.886-10.895,11.229,11.229Z"/><path class="cls-2" d="M230.276,49.514,250.52,29.272l20.208,20.207L250.485,69.72Zm20.242-18.071c-6.024,6.024-12.083,12.082-18.075,18.072l18.1,18.1,18.073-18.07Z"/><path class="cls-2" d="M366.57,38.565l10.714-10.729L399,49.551l-21.7,21.7-10.591-10.6L377.685,49.68Z"/><path class="cls-2" d="M372.129,76.605,350.418,98.316,328.75,76.647Q333.9,71.5,339.145,66.258l10.9,10.9,11.32-11.321Z"/><path class="cls-2" d="M322.531,49.588l11.282,11.283L323.251,71.432c-.117-.11-.251-.23-.378-.357l-21-20.994c-.481-.481-.481-.481,0-.958q10.5-10.5,20.992-21a4.058,4.058,0,0,0,.3-.374l10.581,10.62Z"/><path class="cls-1" d="M361.318,33.251c-3.687-3.687-7.447-7.446-11.2-11.2L339.176,33,328.728,22.612,350.432.9l21.615,21.62ZM350.44,3.049,330.889,22.606l8.255,8.251,11.03-11.031L361.4,31.052l8.519-8.519Z"/><path class="cls-2" d="M329.95,49.48l20.319-20.316,20.351,20.35L350.3,69.83ZM350.3,67.722l18.214-18.211L350.327,31.324q-9.087,9.084-18.216,18.213Z"/><path class="cls-2" d="M477.321,27.805,499,49.482,477.28,71.2,466.691,60.61l10.975-10.975-11.09-11.084Z"/><path class="cls-2" d="M428.66,22.521,450.329.855q10.837,10.837,21.717,21.721l-10.7,10.7-11.239-11.24L439.143,33Z"/><path class="cls-2" d="M428.726,76.534l10.352-10.339L449.986,77.1l11.326-11.328L472.033,76.5,450.361,98.172Z"/><path class="cls-2" d="M433.739,38.333,422.531,49.54l11.28,11.28L423.255,71.382c-.107-.1-.23-.206-.345-.32q-10.53-10.528-21.063-21.055c-.3-.3-.394-.511-.046-.859q10.632-10.61,21.246-21.234c.059-.059.124-.114.162-.148Z"/><path class="cls-2" d="M450.338,29.134l20.31,20.309L450.28,69.81,429.968,49.5Q440.142,39.328,450.338,29.134Zm-.033,2.1L432.1,49.444l18.188,18.185,18.207-18.205Z"/><path class="cls-2" d="M566.882,39.079l10.66-10.668L599,49.867,577.5,71.362,566.989,60.846l10.837-10.824Z"/><path class="cls-2" d="M572.314,23.257l-10.581,10.58L550.614,22.718,539.756,33.577,529.4,23.227,550.847,1.785Z"/><path class="cls-2" d="M529.4,76.626,539.638,66.4c3.61,3.612,7.242,7.244,10.834,10.837l11.212-11.214L572.3,76.631,550.853,98.078Z"/><path class="cls-2" d="M523.957,28.293l10.451,10.481-11.1,11.1,11.184,11.184L523.94,71.61a3.056,3.056,0,0,0-.285-.38Q513.27,60.839,502.878,50.458c-.428-.428-.437-.554,0-.993q10.4-10.379,20.777-20.773A3.192,3.192,0,0,0,523.957,28.293Z"/><path class="cls-2" d="M550.792,29.7l20.142,20.141-20.142,20.14-20.144-20.14ZM532.808,49.847l17.966,17.962,18-17.995L550.807,31.85Z"/><path class="cls-1" d="M518.913,17.579v11.5h-1.454V16.128H530.5v1.451Z"/><path class="cls-1" d="M582.872,18.187h-11.5V16.732h12.946V29.774h-1.451Z"/><path class="cls-1" d="M516.853,82.976V69.948h1.438V81.506h11.493v1.47Z"/><path class="cls-1" d="M583.72,83.6H570.675V82.159h11.558V70.666h1.487Z"/><path class="cls-2" d="M677.593,49.64,666.55,38.6l10.7-10.707L698.9,49.536,677.222,71.208l-10.6-10.6Z"/><path class="cls-2" d="M628.666,22.666,650.335,1,671.97,22.64,661.282,33.329c-3.692-3.692-7.436-7.436-11.159-11.161L639.148,33.146Z"/><path class="cls-2" d="M628.724,76.551,639.08,66.195l10.9,10.905,11.255-11.257L672,76.607,650.391,98.22Z"/><path class="cls-2" d="M623.193,27.8l10.572,10.6L622.6,49.57,633.83,60.8,623.156,71.481a2.741,2.741,0,0,0-.292-.406Q612.406,60.607,601.937,50.15c-.461-.459-.428-.586-.013-1q10.49-10.472,20.964-20.959A3.757,3.757,0,0,0,623.193,27.8Z"/><path class="cls-1" d="M691.138,70.468v20.6H670.481v-.6c0-2.087.017-4.175-.012-6.262-.009-.676-.14-1.351-.227-2.14A22.864,22.864,0,0,1,673.18,82c.984-.017,1.969,0,2.954,0H682V70.468Z"/><path class="cls-1" d="M629.391,81.514V90.5H608.736V69.848h9.078V81.514Z"/><path class="cls-1" d="M618.255,17.171V28.747H609.3V8.114h20.621v9.057Z"/><path class="cls-1" d="M682.608,29.305V17.633H671.053V8.674h20.654V29.305Z"/><path class="cls-2" d="M650.289,29.211l20.283,20.283L650.254,69.81,629.969,49.528Zm18.132,20.381L650.228,31.4c-6.023,6.021-12.094,12.092-18.133,18.13L650.29,67.722Z"/><path class="cls-2" d="M50.188,269.532,30.451,249.8l19.8-19.8L69.99,249.734ZM50.26,255.3l5.466-5.47-5.442-5.441-5.466,5.469Z"/><path class="cls-2" d="M631,149.471l19.473-19.466L670,149.533,650.528,169Z"/><path class="cls-2" d="M131,149.471l19.473-19.466L170,149.533,150.528,169Z"/><path class="cls-2" d="M231,149.471,250.469,130,270,149.534,250.527,169Z"/><path class="cls-2" d="M30,149.472l19.474-19.467L69,149.534,49.527,169Z"/><path class="cls-2" d="M431,149.471l19.473-19.466L470,149.533,450.528,169Z"/><path class="cls-2" d="M531,149.471,550.469,130,570,149.534,550.527,169Z"/><path class="cls-2" d="M331,149.472l19.474-19.467L370,149.534,350.527,169Z"/><path class="cls-2" d="M150.188,269.532,130.451,249.8l19.8-19.8,19.735,19.734Zm.072-14.235,5.466-5.47-5.442-5.441-5.466,5.469Z"/><path class="cls-2" d="M250.188,269.532,230.451,249.8l19.8-19.8,19.735,19.734Zm.072-14.235,5.466-5.47-5.442-5.441-5.466,5.469Z"/><path class="cls-2" d="M350.188,269.532,330.451,249.8l19.8-19.8,19.735,19.734Zm.072-14.235,5.466-5.47-5.442-5.441-5.466,5.469Z"/><path class="cls-2" d="M450.188,269.532,430.451,249.8l19.8-19.8,19.735,19.734Zm.072-14.235,5.466-5.47-5.442-5.441-5.466,5.469Z"/><path class="cls-2" d="M551.188,269.532,531.451,249.8l19.8-19.8,19.735,19.734Zm.072-14.235,5.466-5.47-5.442-5.441-5.466,5.469Z"/><path class="cls-2" d="M650.188,269.532,630.451,249.8l19.8-19.8,19.735,19.734Zm.072-14.235,5.466-5.47-5.442-5.441-5.466,5.469Z"/></g></svg>