<?xml version="1.0" encoding="utf-8"?>
<!-- Generator: Adobe Illustrator 19.2.0, SVG Export Plug-In . SVG Version: 6.00 Build 0)  -->
<svg version="1.1" id="Layer_1" xmlns="http://www.w3.org/2000/svg" xmlns:xlink="http://www.w3.org/1999/xlink" x="0px" y="0px"
	 viewBox="0 0 436.363 285.52" style="enable-background:new 0 0 436.363 285.52;" xml:space="preserve">
<style type="text/css">
	.st0{display:none;fill:#FFFFFF;}
	.st1{fill:#40434E;}
	.st2{fill:#FFFFFF;}
</style>
<path class="st0" d="M69.576,285.809c-23.096,0-46.191,0-69.287,0c0-95.173,0-190.347,0-285.52c122.503,0,245.006,0,367.51,0
	c-0.351,0.439-0.663,0.916-1.057,1.31c-9.485,9.499-18.979,18.988-28.47,28.482c-0.357,0.357-0.695,0.734-1.205,1.275
	c5.013,4.869,9.908,9.623,14.906,14.476c5.242-5.133,10.452-10.489,15.873-15.794c5.412,5.416,10.677,10.684,16.016,16.027
	c4.957-4.974,9.863-9.897,14.819-14.87c-0.446-0.466-0.799-0.85-1.168-1.218c-9.457-9.459-18.917-18.914-28.368-28.379
	c-0.394-0.395-0.707-0.872-1.057-1.31c22.903,0,45.806,0,68.71,0c0,22.999,0,45.999,0,68.998c-0.118-0.069-0.258-0.116-0.351-0.209
	c-9.857-9.863-19.71-19.73-29.567-29.593c-0.26-0.26-0.556-0.485-0.88-0.764c-4.948,4.928-9.84,9.802-14.79,14.733
	c5.268,5.269,10.449,10.449,15.689,15.689c-5.391,5.391-10.644,10.644-15.714,15.714c5.1,5.103,10.077,10.083,15.085,15.094
	c0.158-0.148,0.444-0.403,0.714-0.674c9.623-9.621,19.245-19.244,28.87-28.864c0.297-0.297,0.629-0.559,0.944-0.837
	c0,49.078,0,98.157,0,147.235c-0.119-0.065-0.261-0.107-0.353-0.199c-9.828-9.833-19.652-19.671-29.48-29.505
	c-0.291-0.291-0.619-0.546-0.97-0.852c-4.958,4.948-9.848,9.828-14.9,14.869c5.27,5.269,10.433,10.432,15.675,15.672
	c-5.224,5.225-10.483,10.483-15.608,15.609c5.079,5.081,10.062,10.065,15.078,15.083c0.205-0.193,0.526-0.481,0.83-0.785
	c9.56-9.558,19.118-19.118,28.68-28.674c0.33-0.33,0.699-0.62,1.049-0.929c0,22.903,0,45.806,0,68.71c-22.903,0-45.806,0-68.71,0
	c0.35-0.392,0.683-0.801,1.053-1.172c9.42-9.426,18.842-18.85,28.274-28.262c0.406-0.405,0.921-0.702,1.292-0.979
	c-5.218-5.214-10.207-10.198-15.275-15.262c-5.126,5.124-10.344,10.34-15.635,15.629c-5.306-5.305-10.46-10.458-15.492-15.489
	c-5.047,5.052-9.968,9.977-15.115,15.129c0.36,0.27,0.875,0.567,1.281,0.972c9.433,9.413,18.855,18.836,28.275,28.262
	c0.371,0.371,0.703,0.78,1.053,1.172c-50.233,0-100.466,0-150.699,0c0.319-0.356,0.622-0.728,0.96-1.066
	c9.484-9.488,18.972-18.973,28.458-28.46c0.393-0.393,0.769-0.803,0.952-0.994c-5.092-5.093-10.071-10.074-15.089-15.092
	c-5.075,5.074-10.266,10.265-15.564,15.562c-5.272-5.263-10.429-10.413-15.474-15.45c-5.015,5.019-9.957,9.964-15.1,15.11
	c0.338,0.261,0.84,0.57,1.246,0.975c9.428,9.409,18.845,18.828,28.261,28.249c0.371,0.371,0.708,0.778,1.061,1.168
	c-48.982,0-97.964,0-146.946,0c0.319-0.356,0.622-0.728,0.96-1.066c9.484-9.488,18.972-18.973,28.458-28.46
	c0.393-0.393,0.769-0.803,0.953-0.995c-5.092-5.093-10.071-10.074-15.089-15.092c-5.075,5.074-10.266,10.265-15.565,15.562
	c-5.271-5.263-10.429-10.413-15.473-15.45c-5.016,5.018-9.958,9.963-15.054,15.061c0.325,0.274,0.795,0.616,1.202,1.022
	c9.425,9.412,18.843,18.83,28.259,28.251C68.886,285.013,69.223,285.419,69.576,285.809z M367.801,248.28
	c10.452-10.449,21.013-21.008,31.472-31.464c-10.458-10.457-21.018-21.017-31.475-31.473c-10.453,10.45-21.015,21.008-31.478,31.467
	C346.78,227.266,357.342,237.825,367.801,248.28z M46.508,232.709c-5.331-5.34-10.646-10.663-16.025-16.05
	c5.256-5.25,10.387-10.376,15.327-15.311c-4.942-4.948-9.814-9.825-14.583-14.599c-10.065,10.065-20.255,20.255-30.229,30.229
	c10.128,10.128,20.34,20.34,30.615,30.616C36.455,242.756,41.441,237.773,46.508,232.709z M344.736,85.184
	c-5.308-5.311-10.631-10.637-16.034-16.043c5.239-5.24,10.391-10.391,15.408-15.409c-4.96-4.961-9.812-9.814-14.484-14.487
	c-10.126,10.126-20.341,20.341-30.38,30.38c10.058,10.058,20.247,20.247,30.517,30.517
	C334.645,95.265,339.636,90.279,344.736,85.184z M299.23,217.076c10.102,10.102,20.291,20.292,30.563,30.564
	c4.841-4.897,9.8-9.913,14.848-15.019c-5.25-5.26-10.562-10.581-15.972-16.001c5.268-5.251,10.404-10.37,15.468-15.419
	c-4.918-4.912-9.776-9.764-14.526-14.508C319.49,196.815,309.3,207.006,299.23,217.076z M148.237,216.989
	c10.123,10.124,20.333,20.334,30.608,30.608c4.844-4.84,9.831-9.823,14.903-14.891c-5.332-5.336-10.65-10.657-16.023-16.033
	c5.254-5.249,10.385-10.374,15.349-15.333c-4.952-4.953-9.826-9.827-14.594-14.595C168.414,196.812,158.226,207,148.237,216.989z
	 M217.026,148.396c-10.113,10.119-20.324,20.337-30.638,30.657c4.718,4.689,9.579,9.52,14.512,14.422
	c5.324-5.32,10.578-10.571,15.914-15.903c5.426,5.425,10.712,10.709,16.034,16.03c5.029-5.03,9.938-9.941,14.682-14.686
	C237.212,168.593,227.024,158.399,217.026,148.396z M367.798,177.568c5.413,5.411,10.699,10.695,16.03,16.024
	c5.024-5.025,9.935-9.938,14.634-14.637c-10.319-10.323-20.506-20.513-30.578-30.588c-10.067,10.069-20.255,20.26-30.522,30.53
	c4.795,4.713,9.686,9.521,14.678,14.428C357.171,188.194,362.398,182.967,367.798,177.568z M138.332,216.959
	c-10.181-10.183-20.374-20.379-30.641-30.648c-4.844,4.842-9.753,9.749-14.827,14.82c5.273,5.27,10.435,10.43,15.676,15.669
	c-5.218,5.218-10.476,10.477-15.65,15.65c5.068,5.068,10.054,10.056,14.975,14.976C117.964,237.327,128.159,227.132,138.332,216.959
	z M240.076,232.363c5.15,5.151,10.134,10.135,14.89,14.892c10.12-10.118,20.332-20.33,30.411-30.407
	c-10.049-10.049-20.24-20.239-30.609-30.608c-0.283,0.346-0.611,0.83-1.019,1.233c-4.235,4.194-8.485,8.372-12.721,12.565
	c-0.29,0.287-0.491,0.662-0.898,1.221c5.209,5.207,10.367,10.363,15.527,15.521C250.496,221.943,245.265,227.174,240.076,232.363z
	 M247.526,31.857C237.227,21.552,227.011,11.33,216.87,1.184c-10.091,10.095-20.288,20.295-30.554,30.566
	c4.782,4.789,9.634,9.648,14.598,14.618c2.639-2.638,5.285-5.284,7.931-7.93c2.639-2.638,5.278-5.275,7.985-7.981
	c5.412,5.429,10.673,10.705,15.974,16.023C237.801,41.517,242.734,36.617,247.526,31.857z M248.347,69.824
	c-10.569-10.568-21.129-21.126-31.589-31.585c-10.452,10.446-21.017,21.005-31.593,31.574c1.12,1.467,30.864,31.085,31.646,31.536
	C227.37,90.793,237.906,80.261,248.347,69.824z M39.126,178.875c4.76,4.766,9.608,9.619,14.562,14.579
	c5.256-5.255,10.513-10.512,15.888-15.886c5.398,5.396,10.688,10.685,16.033,16.029c4.996-5.001,9.906-9.917,14.669-14.686
	c-10.298-10.302-20.489-20.496-30.595-30.605C59.591,158.401,49.4,168.597,39.126,178.875z M39.079,31.334
	c4.866,4.838,9.723,9.668,14.697,14.614c1.081-1.116,2.107-2.19,3.149-3.249c1.045-1.062,2.106-2.11,3.16-3.164
	c1.054-1.054,2.108-2.108,3.162-3.162c1.054-1.054,2.104-2.112,3.163-3.161c1.044-1.034,2.056-2.103,3.185-3.139
	c5.411,5.404,10.675,10.661,16.015,15.993c4.991-5.012,9.889-9.93,14.573-14.633C89.876,21.122,79.696,10.939,69.579,0.819
	C59.549,10.854,49.392,21.016,39.079,31.334z M45.758,53.86c-4.986-4.987-9.827-9.829-14.438-14.441
	C21.283,49.454,11.101,59.635,1.174,69.561c10.037,10.037,20.216,20.216,30.521,30.521c4.799-4.86,9.748-9.872,14.766-14.954
	c-5.31-5.31-10.605-10.606-15.983-15.985C35.686,63.934,40.812,58.807,45.758,53.86z M186.409,107.866
	c10.226,10.229,20.413,20.42,30.466,30.477c10.133-10.137,20.344-20.352,30.35-30.361c-4.855-4.857-9.832-9.837-14.969-14.976
	c-5.069,5.073-10.259,10.267-15.547,15.558c-5.178-5.168-10.362-10.342-15.51-15.481
	C196.184,98.096,191.289,102.989,186.409,107.866z M240.239,53.898c5.256,5.257,10.413,10.415,15.675,15.677
	c-5.358,5.358-10.615,10.616-16.011,16.012c5.04,5.082,9.999,10.083,14.93,15.056c1.887-1.457,30.299-30.006,30.626-30.58
	c-10.252-10.252-20.436-20.436-30.68-30.68C250.064,44.09,245.206,48.94,240.239,53.898z M69.578,37.837
	c-10.454,10.451-21.016,21.01-31.462,31.452c10.457,10.455,21.019,21.014,31.458,31.45c10.454-10.451,21.016-21.01,31.458-31.45
	C90.576,58.834,80.016,48.274,69.578,37.837z M336.129,69.404c2.461,2.855,30.802,31.004,31.778,31.562
	c2.82-2.426,31.007-30.809,31.568-31.787c-2.469-2.866-30.803-31.006-31.631-31.48C357.274,48.266,346.736,58.8,336.129,69.404z
	 M69.427,248.244c10.56-10.556,21.122-21.115,31.441-31.431c-10.415-10.415-20.975-20.975-31.29-31.291
	c-10.414,10.411-20.976,20.969-31.444,31.435C48.526,227.348,59.064,237.883,69.427,248.244z M248.268,216.959
	c-10.565-10.566-21.126-21.126-31.456-31.456c-10.419,10.416-20.981,20.975-31.319,31.31c10.421,10.419,20.983,20.978,31.459,31.452
	C227.348,237.873,237.885,227.339,248.268,216.959z M107.692,38.834c-4.834,4.832-9.737,9.733-14.665,14.659
	c5.287,5.287,10.438,10.438,15.675,15.676c-5.387,5.36-10.632,10.577-15.79,15.709c5.062,5.062,10.049,10.049,14.959,14.96
	c10.088-10.087,20.284-20.283,30.417-30.416C128.16,59.296,117.962,49.101,107.692,38.834z M337.504,107.473
	c10.195,10.199,20.382,20.39,30.505,30.517c10.101-10.102,20.294-20.297,30.425-30.429c-4.93-4.914-9.923-9.891-15.001-14.953
	c-5.111,5.111-10.327,10.326-15.634,15.632c-5.289-5.288-10.445-10.441-15.538-15.533
	C347.245,97.726,342.324,102.65,337.504,107.473z M100.116,107.579c-4.915-4.914-9.903-9.902-14.939-14.937
	c-5.104,5.103-10.298,10.296-15.601,15.598c-5.271-5.27-10.426-10.425-15.512-15.51c-5.025,5.024-9.951,9.949-14.799,14.796
	c10.133,10.136,20.331,20.337,30.452,30.461C79.846,127.855,90.043,117.655,100.116,107.579z M177.709,69.576
	c5.255-5.257,10.377-10.38,15.41-15.415c-4.964-4.96-9.82-9.812-14.468-14.455c-10.102,10.101-20.319,20.317-30.364,30.361
	c10.053,10.054,20.244,20.244,30.49,30.49c4.88-4.878,9.869-9.866,14.958-14.953C188.441,80.31,183.147,75.015,177.709,69.576z"/>
<g>
	<path class="st1" d="M367.798,285.809c-0.35-0.392-0.682-0.801-1.053-1.172c-9.42-9.426-18.842-18.849-28.275-28.262
		c-0.406-0.405-0.92-0.702-1.281-0.972c5.147-5.152,10.068-10.078,15.115-15.129c5.032,5.031,10.186,10.184,15.492,15.489
		c5.291-5.289,10.509-10.505,15.635-15.629c5.067,5.063,10.057,10.048,15.275,15.262c-0.371,0.277-0.886,0.574-1.292,0.979
		c-9.433,9.413-18.854,18.837-28.274,28.262c-0.371,0.371-0.703,0.781-1.053,1.172C367.991,285.809,367.894,285.809,367.798,285.809
		z"/>
	<path class="st1" d="M216.81,285.809c-0.353-0.39-0.689-0.796-1.061-1.168c-9.416-9.421-18.834-18.84-28.261-28.249
		c-0.406-0.405-0.909-0.714-1.246-0.975c5.143-5.146,10.085-10.091,15.1-15.11c5.045,5.037,10.203,10.187,15.474,15.45
		c5.298-5.297,10.489-10.488,15.564-15.562c5.017,5.019,9.997,9.999,15.089,15.092c-0.183,0.192-0.559,0.601-0.952,0.994
		c-9.486,9.487-18.974,18.972-28.458,28.46c-0.338,0.338-0.641,0.71-0.96,1.066C217.003,285.809,216.907,285.809,216.81,285.809z"/>
	<path class="st1" d="M69.576,285.809c-0.353-0.39-0.689-0.796-1.061-1.168c-9.416-9.421-18.834-18.839-28.259-28.251
		c-0.406-0.406-0.876-0.747-1.202-1.022c5.096-5.098,10.038-10.042,15.054-15.061c5.044,5.037,10.202,10.187,15.473,15.45
		c5.298-5.297,10.49-10.488,15.565-15.562c5.018,5.019,9.997,9.999,15.089,15.092c-0.184,0.192-0.56,0.602-0.953,0.995
		c-9.486,9.487-18.974,18.972-28.458,28.46c-0.338,0.338-0.641,0.71-0.96,1.066C69.768,285.809,69.672,285.809,69.576,285.809z"/>
	<path class="st1" d="M436.796,69.576c-0.316,0.278-0.647,0.54-0.944,0.837c-9.625,9.62-19.246,19.243-28.87,28.864
		c-0.27,0.27-0.556,0.525-0.714,0.674c-5.008-5.011-9.986-9.991-15.085-15.094c5.07-5.071,10.323-10.323,15.714-15.714
		c-5.24-5.24-10.42-10.421-15.689-15.689c4.95-4.93,9.842-9.804,14.79-14.733c0.324,0.28,0.62,0.504,0.88,0.764
		c9.857,9.863,19.71,19.73,29.567,29.593c0.093,0.093,0.233,0.14,0.351,0.209C436.796,69.383,436.796,69.479,436.796,69.576z"/>
	<path class="st1" d="M436.796,217.099c-0.351,0.309-0.719,0.6-1.049,0.929c-9.562,9.556-19.12,19.116-28.68,28.674
		c-0.304,0.304-0.625,0.592-0.83,0.785c-5.016-5.018-9.999-10.002-15.078-15.083c5.125-5.125,10.384-10.384,15.608-15.609
		c-5.241-5.241-10.405-10.403-15.675-15.672c5.052-5.042,9.942-9.921,14.9-14.869c0.351,0.307,0.679,0.561,0.97,0.852
		c9.828,9.834,19.652,19.671,29.48,29.505c0.092,0.092,0.234,0.134,0.353,0.199C436.796,216.907,436.796,217.003,436.796,217.099z"
		/>
	<path class="st1" d="M368.087,0.289c0.35,0.439,0.663,0.915,1.057,1.31c9.451,9.465,18.911,18.92,28.368,28.379
		c0.368,0.368,0.722,0.752,1.168,1.218c-4.956,4.973-9.862,9.896-14.819,14.87c-5.339-5.343-10.604-10.611-16.016-16.027
		c-5.422,5.305-10.631,10.661-15.873,15.794c-4.997-4.853-9.893-9.608-14.906-14.476c0.51-0.541,0.847-0.918,1.205-1.275
		c9.49-9.493,18.985-18.983,28.47-28.482c0.394-0.395,0.707-0.872,1.057-1.31C367.894,0.289,367.991,0.289,368.087,0.289z"/>
	<path class="st1" d="M395.34,31.301c-9.194-9.201-18.39-18.402-27.364-27.382c-9.076,9.077-18.275,18.277-27.25,27.254
		c3.709,3.723,7.56,7.589,11.483,11.528c5.095-5.095,10.318-10.316,15.658-15.656c5.388,5.39,10.652,10.656,15.843,15.849
		C387.638,38.979,391.545,35.084,395.34,31.301z"/>
	<path class="st1" d="M367.801,248.28c-10.459-10.455-21.021-21.014-31.481-31.47c10.462-10.459,21.024-21.017,31.478-31.467
		c10.457,10.456,21.017,21.016,31.475,31.473C388.814,227.272,378.253,237.831,367.801,248.28z"/>
	<path class="st1" d="M46.508,232.709c-5.067,5.064-10.053,10.046-14.894,14.885c-10.275-10.276-20.487-20.488-30.615-30.616
		c9.974-9.974,20.164-20.164,30.229-30.229c4.769,4.775,9.641,9.651,14.583,14.599c-4.94,4.935-10.071,10.061-15.327,15.311
		C35.862,222.046,41.177,227.37,46.508,232.709z"/>
	<path class="st1" d="M344.736,85.184c-5.1,5.095-10.091,10.081-14.973,14.958c-10.27-10.27-20.459-20.459-30.517-30.517
		c10.039-10.039,20.254-20.254,30.38-30.38c4.672,4.673,9.523,9.525,14.484,14.487c-5.018,5.018-10.169,10.169-15.408,15.409
		C334.105,74.547,339.428,79.873,344.736,85.184z"/>
	<path class="st1" d="M299.23,217.076c10.07-10.07,20.261-20.261,30.382-30.382c4.75,4.745,9.608,9.596,14.526,14.508
		c-5.064,5.048-10.2,10.168-15.468,15.419c5.409,5.419,10.721,10.741,15.972,16.001c-5.048,5.106-10.007,10.122-14.848,15.019
		C319.521,237.368,309.332,227.179,299.23,217.076z"/>
	<path class="st1" d="M148.237,216.989c9.989-9.989,20.177-20.177,30.243-30.243c4.768,4.768,9.642,9.642,14.594,14.595
		c-4.964,4.959-10.095,10.084-15.349,15.333c5.373,5.376,10.69,10.697,16.023,16.033c-5.072,5.068-10.058,10.05-14.903,14.891
		C168.57,237.323,158.36,227.113,148.237,216.989z"/>
	<path class="st1" d="M217.026,148.396c9.998,10.004,20.186,20.197,30.502,30.519c-4.743,4.745-9.653,9.656-14.682,14.686
		c-5.322-5.321-10.608-10.605-16.034-16.03c-5.336,5.332-10.59,10.583-15.914,15.903c-4.933-4.902-9.793-9.733-14.512-14.422
		C196.702,168.732,206.913,158.515,217.026,148.396z"/>
	<path class="st1" d="M367.798,177.568c-5.399,5.399-10.627,10.626-15.759,15.757c-4.993-4.908-9.883-9.715-14.678-14.428
		c10.268-10.27,20.456-20.461,30.522-30.53c10.072,10.075,20.259,20.266,30.578,30.588c-4.698,4.699-9.609,9.611-14.634,14.637
		C378.497,188.264,373.211,182.98,367.798,177.568z"/>
	<path class="st1" d="M138.332,216.959c-10.173,10.173-20.367,20.368-30.466,30.467c-4.92-4.921-9.907-9.908-14.975-14.976
		c5.173-5.173,10.432-10.432,15.65-15.65c-5.241-5.239-10.404-10.399-15.676-15.669c5.073-5.071,9.983-9.978,14.827-14.82
		C117.957,196.58,128.151,206.776,138.332,216.959z"/>
	<path class="st1" d="M240.076,232.363c5.189-5.189,10.42-10.421,15.582-15.583c-5.16-5.158-10.318-10.314-15.527-15.521
		c0.406-0.559,0.608-0.934,0.898-1.221c4.235-4.193,8.486-8.372,12.721-12.565c0.407-0.403,0.736-0.887,1.019-1.233
		c10.369,10.369,20.56,20.559,30.609,30.608c-10.079,10.078-20.291,20.289-30.411,30.407
		C250.21,242.499,245.227,237.515,240.076,232.363z"/>
	<path class="st1" d="M247.526,31.857c-4.792,4.76-9.725,9.66-14.722,14.622c-5.301-5.318-10.562-10.594-15.974-16.023
		c-2.708,2.706-5.347,5.344-7.985,7.981c-2.646,2.645-5.292,5.291-7.931,7.93c-4.964-4.971-9.816-9.829-14.598-14.618
		c10.267-10.27,20.463-20.471,30.554-30.566C227.011,11.33,237.227,21.552,247.526,31.857z"/>
	<path class="st1" d="M248.347,69.824c-10.441,10.437-20.977,20.97-31.535,31.525c-0.782-0.451-30.526-30.069-31.646-31.536
		c10.576-10.57,21.141-21.129,31.593-31.574C227.218,48.697,237.778,59.256,248.347,69.824z"/>
	<path class="st1" d="M245.413,69.808c-9.529-9.528-19.132-19.13-28.613-28.61c-9.481,9.48-19.082,19.081-28.695,28.693
		c1.431,1.781,27.869,28.063,28.681,28.532C226.39,88.823,235.971,79.245,245.413,69.808z"/>
	<path class="st1" d="M39.126,178.875c10.274-10.278,20.466-20.474,30.557-30.569c10.106,10.109,20.297,20.303,30.595,30.605
		c-4.763,4.769-9.673,9.685-14.669,14.686c-5.345-5.344-10.636-10.633-16.033-16.029c-5.375,5.374-10.632,10.631-15.888,15.886
		C48.734,188.494,43.886,183.641,39.126,178.875z"/>
	<path class="st1" d="M97.355,178.531c-9.184-9.182-18.381-18.377-27.563-27.558c-2.632,2.201-27.135,26.89-27.656,27.838
		c1.972,2.343,10.747,10.952,11.76,11.504c5.203-5.202,10.424-10.422,15.807-15.804c5.405,5.406,10.669,10.671,15.838,15.841
		C89.417,186.473,93.318,182.57,97.355,178.531z"/>
	<path class="st1" d="M39.079,31.334c10.313-10.318,20.47-20.48,30.5-30.515c10.117,10.12,20.297,20.303,30.604,30.614
		c-4.684,4.704-9.582,9.621-14.573,14.633c-5.34-5.333-10.604-10.59-16.015-15.993c-1.129,1.037-2.141,2.106-3.185,3.139
		c-1.059,1.049-2.109,2.107-3.163,3.161c-1.054,1.054-2.108,2.108-3.162,3.162c-1.054,1.054-2.115,2.101-3.16,3.164
		c-1.042,1.059-2.068,2.132-3.149,3.249C48.802,41.002,43.945,36.172,39.079,31.334z"/>
	<path class="st1" d="M97.093,31.26c-9.178-9.184-18.374-18.387-27.371-27.39c-9.077,9.075-18.279,18.276-27.374,27.371
		c3.734,3.73,7.596,7.588,11.572,11.559c5.128-5.127,10.348-10.346,15.656-15.655c5.383,5.383,10.666,10.666,15.81,15.809
		C89.43,38.915,93.333,35.016,97.093,31.26z"/>
	<path class="st1" d="M45.758,53.86c-4.946,4.947-10.071,10.074-15.279,15.283c5.378,5.379,10.673,10.675,15.983,15.985
		c-5.018,5.082-9.967,10.094-14.766,14.954C21.39,89.778,11.211,79.598,1.174,69.561c9.927-9.926,20.109-20.107,30.145-30.143
		C35.93,44.03,40.772,48.873,45.758,53.86z"/>
	<path class="st1" d="M43.343,84.919c-5.14-5.147-10.396-10.411-15.758-15.779c5.216-5.22,10.361-10.368,15.375-15.386
		c-4.006-4.007-7.875-7.877-11.61-11.614C22.236,51.255,13.03,60.461,3.999,69.492c9.118,9.118,18.342,18.341,27.381,27.38
		C35.235,93.02,39.238,89.02,43.343,84.919z"/>
	<path class="st1" d="M186.409,107.866c4.88-4.878,9.775-9.77,14.79-14.783c5.149,5.139,10.333,10.313,15.51,15.481
		c5.287-5.291,10.477-10.485,15.547-15.558c5.137,5.139,10.114,10.119,14.969,14.976c-10.006,10.01-20.217,20.224-30.35,30.361
		C206.822,128.286,196.635,118.096,186.409,107.866z"/>
	<path class="st1" d="M216.867,135.353c9.146-9.148,18.345-18.349,27.634-27.641c-3.862-3.861-7.852-7.85-11.903-11.898
		c-5.338,5.337-10.526,10.525-15.788,15.786c-5.284-5.284-10.436-10.435-15.379-15.377c-4.071,4.073-8,8.003-11.841,11.845
		C198.629,117.109,207.8,126.283,216.867,135.353z"/>
	<path class="st1" d="M240.239,53.898c4.967-4.958,9.825-9.808,14.54-14.515c10.244,10.244,20.428,20.428,30.68,30.68
		c-0.328,0.574-28.739,29.123-30.626,30.58c-4.931-4.973-9.891-9.974-14.93-15.056c5.395-5.396,10.653-10.653,16.011-16.012
		C250.652,64.313,245.495,59.155,240.239,53.898z"/>
	<path class="st1" d="M255.105,42.413c-3.821,3.818-7.718,7.712-11.718,11.71c5.054,5.056,10.205,10.209,15.445,15.452
		c-5.366,5.369-10.617,10.624-15.773,15.783c4.108,4.109,8.081,8.082,12.066,12.068c1.374-0.985,27.04-26.784,27.442-27.548
		C273.36,60.668,264.183,51.491,255.105,42.413z"/>
	<path class="st1" d="M69.578,37.837c10.438,10.437,20.998,20.997,31.454,31.452c-10.443,10.44-21.004,20.998-31.458,31.45
		c-10.439-10.436-21-20.995-31.458-31.45C48.562,58.847,59.124,48.288,69.578,37.837z"/>
	<path class="st1" d="M69.528,97.875c9.569-9.564,19.15-19.139,28.566-28.549c-9.496-9.496-19.1-19.098-28.479-28.476
		c-9.475,9.47-19.081,19.071-28.562,28.547C50.488,78.833,60.067,88.413,69.528,97.875z"/>
	<path class="st1" d="M336.129,69.404c10.607-10.604,21.144-21.138,31.715-31.705c0.828,0.474,29.162,28.614,31.631,31.48
		c-0.561,0.978-28.748,29.361-31.568,31.787C366.931,100.408,338.59,72.259,336.129,69.404z"/>
	<path class="st1" d="M396.317,69.367c-9.528-9.526-19.132-19.128-28.75-28.744c-1.945,1.586-28.034,27.848-28.444,28.577
		c9.622,9.622,19.201,19.2,28.677,28.676C377.278,88.4,386.858,78.823,396.317,69.367z"/>
	<path class="st1" d="M69.427,248.244c-10.364-10.361-20.901-20.896-31.293-31.286c10.469-10.465,21.03-21.024,31.444-31.435
		c10.315,10.315,20.875,20.875,31.29,31.291C90.549,227.129,79.987,237.688,69.427,248.244z"/>
	<path class="st1" d="M69.695,188.305c-9.552,9.546-19.159,19.146-28.633,28.613c9.435,9.435,19.014,19.014,28.47,28.471
		c9.513-9.509,19.119-19.11,28.633-28.619C88.695,207.301,79.115,197.723,69.695,188.305z"/>
	<path class="st1" d="M248.268,216.959c-10.383,10.38-20.921,20.914-31.316,31.306c-10.476-10.474-21.037-21.033-31.459-31.452
		c10.339-10.336,20.9-20.894,31.319-31.31C227.143,195.833,237.703,206.394,248.268,216.959z"/>
	<path class="st1" d="M188.201,216.775c9.565,9.567,19.143,19.147,28.565,28.57c9.504-9.499,19.109-19.1,28.511-28.497
		c-9.483-9.481-19.088-19.083-28.575-28.568C207.267,197.713,197.687,207.291,188.201,216.775z"/>
	<path class="st1" d="M107.692,38.834c10.27,10.267,20.468,20.462,30.597,30.588c-10.133,10.133-20.329,20.329-30.417,30.416
		c-4.911-4.911-9.897-9.898-14.959-14.96c5.158-5.131,10.402-10.349,15.79-15.709c-5.237-5.237-10.388-10.389-15.675-15.676
		C97.955,48.567,102.858,43.666,107.692,38.834z"/>
	<path class="st1" d="M135.389,69.331c-0.9-1.263-26.752-26.998-27.747-27.554c-3.871,3.876-7.767,7.763-11.753,11.759
		c5.285,5.277,10.418,10.402,15.655,15.631c-5.302,5.306-10.555,10.562-15.681,15.691c4.104,4.102,8.102,8.098,12.001,11.994
		C116.96,87.758,126.167,78.552,135.389,69.331z"/>
	<path class="st1" d="M337.504,107.473c4.82-4.823,9.741-9.748,14.756-14.766c5.093,5.092,10.249,10.245,15.538,15.533
		c5.307-5.306,10.522-10.521,15.634-15.632c5.078,5.062,10.071,10.039,15.001,14.953c-10.131,10.132-20.325,20.327-30.425,30.429
		C357.886,127.863,347.699,117.672,337.504,107.473z"/>
	<path class="st1" d="M368.033,135.119c2.116-1.723,26.958-26.733,27.388-27.493c-4.009-4.01-7.978-7.98-12.035-12.038
		c-5.115,5.114-10.333,10.331-15.589,15.587c-2.721-2.722-5.296-5.316-7.89-7.89c-2.578-2.558-5.089-5.186-7.49-7.432
		c-4.06,4.062-7.986,7.989-11.815,11.819C349.624,116.701,358.798,125.879,368.033,135.119z"/>
	<path class="st1" d="M100.116,107.579c-10.073,10.076-20.27,20.276-30.4,30.408c-10.121-10.124-20.319-20.325-30.452-30.461
		c4.847-4.846,9.773-9.771,14.799-14.796c5.086,5.085,10.241,10.239,15.512,15.51c5.303-5.302,10.497-10.495,15.601-15.598
		C90.213,97.677,95.201,102.665,100.116,107.579z"/>
	<path class="st1" d="M97.14,107.571c-3.894-3.894-7.891-7.892-11.997-11.997c-5.089,5.088-10.304,10.303-15.57,15.567
		c-2.723-2.724-5.295-5.319-7.891-7.888c-2.582-2.555-5.077-5.201-7.555-7.475c-4.053,4.053-7.986,7.985-11.801,11.799
		c9.086,9.089,18.291,18.297,27.404,27.413C78.84,125.878,88.045,116.669,97.14,107.571z"/>
	<path class="st1" d="M177.709,69.576c5.438,5.439,10.732,10.734,16.026,16.028c-5.089,5.087-10.078,10.075-14.958,14.953
		c-10.246-10.246-20.436-20.437-30.49-30.49c10.045-10.044,20.262-20.26,30.364-30.361c4.648,4.644,9.504,9.495,14.468,14.455
		C188.086,59.196,182.964,64.319,177.709,69.576z"/>
	<path class="st1" d="M190.577,85.367c-5.184-5.185-10.441-10.442-15.789-15.79c5.231-5.234,10.348-10.354,15.361-15.369
		c-3.964-3.964-7.827-7.826-11.584-11.582c-9.085,9.085-18.287,18.287-27.385,27.385c9.081,9.078,18.285,18.278,27.39,27.378
		C182.439,93.515,186.437,89.512,190.577,85.367z"/>
</g>
<g>
	<path class="st2" d="M395.34,31.301c-3.795,3.782-7.703,7.678-11.63,11.593c-5.191-5.193-10.456-10.46-15.843-15.849
		c-5.34,5.34-10.562,10.561-15.658,15.656c-3.923-3.938-7.774-7.804-11.483-11.528c8.975-8.976,18.175-18.177,27.25-27.254
		C376.951,12.9,386.146,22.101,395.34,31.301z"/>
	<path class="st2" d="M245.413,69.808c-9.441,9.438-19.022,19.015-28.627,28.616c-0.812-0.469-27.25-26.751-28.681-28.532
		c9.613-9.613,19.215-19.213,28.695-28.693C226.28,50.677,235.884,60.28,245.413,69.808z"/>
	<path class="st2" d="M97.355,178.531c-4.037,4.039-7.938,7.942-11.815,11.82c-5.169-5.17-10.433-10.435-15.838-15.841
		c-5.383,5.382-10.604,10.602-15.807,15.804c-1.012-0.551-9.788-9.16-11.76-11.504c0.521-0.948,25.024-25.637,27.656-27.838
		C78.975,160.154,88.171,169.348,97.355,178.531z"/>
	<path class="st2" d="M97.093,31.26c-3.76,3.756-7.663,7.655-11.707,11.694c-5.144-5.143-10.427-10.426-15.81-15.809
		C64.267,32.453,59.047,37.673,53.92,42.8c-3.975-3.971-7.837-7.829-11.572-11.559c9.095-9.094,18.298-18.295,27.374-27.371
		C78.719,12.873,87.915,22.076,97.093,31.26z"/>
	<path class="st2" d="M43.343,84.919c-4.105,4.101-8.108,8.101-11.963,11.953c-9.039-9.039-18.262-18.262-27.381-27.38
		c9.03-9.031,18.236-18.237,27.351-27.352c3.736,3.737,7.604,7.607,11.61,11.614C37.946,58.772,32.801,63.92,27.585,69.14
		C32.947,74.508,38.203,79.772,43.343,84.919z"/>
	<path class="st2" d="M216.867,135.353c-9.067-9.07-18.238-18.244-27.276-27.285c3.841-3.842,7.77-7.772,11.841-11.845
		c4.943,4.942,10.094,10.093,15.379,15.377c5.262-5.262,10.45-10.449,15.788-15.786c4.05,4.049,8.041,8.038,11.903,11.898
		C235.211,117.004,226.013,126.205,216.867,135.353z"/>
	<path class="st2" d="M255.105,42.413c9.077,9.078,18.255,18.255,27.463,27.464c-0.402,0.764-26.068,26.563-27.442,27.548
		c-3.985-3.986-7.958-7.959-12.066-12.068c5.156-5.159,10.407-10.414,15.773-15.783c-5.24-5.242-10.391-10.395-15.445-15.452
		C247.388,50.125,251.285,46.231,255.105,42.413z"/>
	<path class="st2" d="M69.528,97.875c-9.462-9.463-19.04-19.042-28.476-28.478C50.534,59.921,60.14,50.32,69.615,40.85
		c9.379,9.378,18.982,18.981,28.479,28.476C88.678,78.736,79.098,88.311,69.528,97.875z"/>
	<path class="st2" d="M396.317,69.367c-9.459,9.455-19.039,19.033-28.518,28.509c-9.476-9.476-19.055-19.054-28.677-28.676
		c0.41-0.729,26.499-26.991,28.444-28.577C377.185,50.239,386.79,59.842,396.317,69.367z"/>
	<path class="st2" d="M69.695,188.305c9.42,9.419,19,18.997,28.47,28.464c-9.514,9.51-19.12,19.11-28.633,28.619
		c-9.456-9.456-19.035-19.035-28.47-28.471C50.536,207.45,60.142,197.85,69.695,188.305z"/>
	<path class="st2" d="M188.201,216.775c9.486-9.484,19.066-19.062,28.501-28.495c9.487,9.485,19.091,19.087,28.575,28.568
		c-9.402,9.397-19.008,18.998-28.511,28.497C207.344,235.922,197.766,226.343,188.201,216.775z"/>
	<path class="st2" d="M135.389,69.331c-9.223,9.221-18.43,18.428-27.525,27.522c-3.898-3.896-7.897-7.892-12.001-11.994
		c5.126-5.13,10.378-10.385,15.681-15.691c-5.237-5.229-10.371-10.354-15.655-15.631c3.986-3.996,7.882-7.884,11.753-11.759
		C108.638,42.332,134.489,68.068,135.389,69.331z"/>
	<path class="st2" d="M368.033,135.119c-9.235-9.24-18.408-18.418-27.432-27.447c3.829-3.83,7.755-7.758,11.815-11.819
		c2.401,2.246,4.912,4.874,7.49,7.432c2.594,2.574,5.169,5.167,7.89,7.89c5.256-5.256,10.475-10.473,15.589-15.587
		c4.057,4.058,8.026,8.028,12.035,12.038C394.991,108.386,370.148,133.396,368.033,135.119z"/>
	<path class="st2" d="M97.14,107.571c-9.095,9.098-18.3,18.306-27.409,27.418c-9.113-9.116-18.318-18.324-27.404-27.413
		c3.815-3.814,7.747-7.746,11.801-11.799c2.478,2.274,4.973,4.921,7.555,7.475c2.597,2.569,5.168,5.164,7.891,7.888
		c5.266-5.265,10.481-10.479,15.57-15.567C89.248,99.68,93.246,103.677,97.14,107.571z"/>
	<path class="st2" d="M190.577,85.367c-4.14,4.145-8.138,8.148-12.008,12.023c-9.104-9.1-18.308-18.301-27.39-27.378
		c9.098-9.098,18.301-18.3,27.385-27.385c3.757,3.756,7.62,7.618,11.584,11.582c-5.013,5.015-10.13,10.135-15.361,15.369
		C180.136,74.926,185.392,80.183,190.577,85.367z"/>
</g>
</svg>
